/* XPM */
static char *_3e981c98e2b4dc1f427badcb26ab34aXQFB8bi8ubs0kTKc[] = {
/* columns rows colors chars-per-pixel */
"64 64 4 1 ",
"  c None",
". c #42A5F5",
"X c #BBDEFB",
"o c white",
/* pixels */
"             ......................................             ",
"             ......................................             ",
"             ......................................             ",
"             ......................................             ",
"             ......................................             ",
"             ......................................             ",
"      .......XXXXXXXXXXXXXXXXXXXXXXXXXXXXXXXXXXXXXX.......      ",
"      .......XXXXXXXXXXXXXXXXXXXXXXXXXXXXXXXXXXXXXX.......      ",
"      .......XXXXXXXXXXXXXXXXXXXXXXXXXXXXXXXXXXXXXX.......      ",
"      .......XXXXXXXXXXXXXXXXXXXXXXXXXXXXXXXXXXXXXX.......      ",
"      .......XXXXXXXXXXXXXXXXXXXXXXXXXXXXXXXXXXXXXX.......      ",
"      .......XXXXXXXXXXXXXXXXXXXXXXXXXXXXXXXXXXXXXX.......      ",
"      .......XXXXXXXXXXXXXXXXXXXXXXXXXXXXXXXXXXXXXX.......      ",
"......XXXXXXXoooooooooooooooooooXXXXXXXXXXXXXXXXXXXXXXXXXX......",
"......XXXXXXXoooooooooooooooooooXXXXXXXXXXXXXXXXXXXXXXXXXX......",
"......XXXXXXXoooooooooooooooooooXXXXXXXXXXXXXXXXXXXXXXXXXX......",
"......XXXXXXXoooooooooooooooooooXXXXXXXXXXXXXXXXXXXXXXXXXX......",
"......XXXXXXXoooooooooooooooooooXXXXXXXXXXXXXXXXXXXXXXXXXX......",
"......XXXXXXXoooooooooooooooooooXXXXXXXXXXXXXXXXXXXXXXXXXX......",
"......XXXXXXXoooooooooooooooooooXXXXXXXXXXXXXXXXXXXXXXXXXX......",
"......XXXXXXXoooooooooooooooooooXXXXXXXXXXXXXXXXXXXXXXXXXX......",
"......XXXXXXXoooooooooooooooooooXXXXXXXXXXXXXXXXXXXXXXXXXX......",
"......XXXXXXXoooooooooooooooooooXXXXXXXXXXXXXXXXXXXXXXXXXX......",
"......XXXXXXXoooooooooooooooooooXXXXXXXXXXXXXXXXXXXXXXXXXX......",
"......XXXXXXXoooooooooooooooooooXXXXXXXXXXXXXXXXXXXXXXXXXX......",
"......XXXXXXXoooooooooooooooooooXXXXXXXXXXXXXXXXXXXXXXXXXX......",
"......XXXXXXXoooooooooooooooooooXXXXXXXXXXXXXXXXXXXXXXXXXX......",
"......XXXXXXXoooooooooooooooooooXXXXXXXXXXXXXXXXXXXXXXXXXX......",
"......XXXXXXXoooooooooooooooooooXXXXXXXXXXXXXXXXXXXXXXXXXX......",
"......XXXXXXXoooooooooooooooooooXXXXXXXXXXXXXXXXXXXXXXXXXX......",
"......XXXXXXXoooooooooooooooooooXXXXXXXXXXXXXXXXXXXXXXXXXX......",
"......XXXXXXXoooooooooooooooooooXXXXXXXXXXXXXXXXXXXXXXXXXX......",
"......XXXXXXXXXXXXXXXXXXXXXXXXXXXXXXXXXXXXXXXXXXXXXXXXXXXX......",
"......XXXXXXXXXXXXXXXXXXXXXXXXXXXXXXXXXXXXXXXXXXXXXXXXXXXX......",
"......XXXXXXXXXXXXXXXXXXXXXXXXXXXXXXXXXXXXXXXXXXXXXXXXXXXX......",
"......XXXXXXXXXXXXXXXXXXXXXXXXXXXXXXXXXXXXXXXXXXXXXXXXXXXX......",
"......XXXXXXXXXXXXXXXXXXXXXXXXXXXXXXXXXXXXXXXXXXXXXXXXXXXX......",
"......XXXXXXXXXXXXXXXXXXXXXXXXXXXXXXXXXXXXXXXXXXXXXXXXXXXX......",
"......XXXXXXXXXXXXXXXXXXXXXXXXXXXXXXXXXXXXXXXXXXXXXXXXXXXX......",
"......XXXXXXXXXXXXXXXXXXXXXXXXXXXXXXXXXXXXXXXXXXXXXXXXXXXX......",
"......XXXXXXXXXXXXXXXXXXXXXXXXXXXXXXXXXXXXXXXXXXXXXXXXXXXX......",
"......XXXXXXXXXXXXXXXXXXXXXXXXXXXXXXXXXXXXXXXXXXXXXXXXXXXX......",
"......XXXXXXXXXXXXXXXXXXXXXXXXXXXXXXXXXXXXXXXXXXXXXXXXXXXX......",
"......XXXXXXXXXXXXXXXXXXXXXXXXXXXXXXXXXXXXXXXXXXXXXXXXXXXX......",
"......XXXXXXXXXXXXXXXXXXXXXXXXXXXXXXXXXXXXXXXXXXXXXXXXXXXX......",
"......XXXXXXXXXXXXXXXXXXXXXXXXXXXXXXXXXXXXXXXXXXXXXXXXXXXX......",
"......XXXXXXXXXXXXXXXXXXXXXXXXXXXXXXXXXXXXXXXXXXXXXXXXXXXX......",
"......XXXXXXXXXXXXXXXXXXXXXXXXXXXXXXXXXXXXXXXXXXXXXXXXXXXX......",
"......XXXXXXXXXXXXXXXXXXXXXXXXXXXXXXXXXXXXXXXXXXXXXXXXXXXX......",
"......XXXXXXXXXXXXXXXXXXXXXXXXXXXXXXXXXXXXXXXXXXXXXXXXXXXX......",
"......XXXXXXXXXXXXXXXXXXXXXXXXXXXXXXXXXXXXXXXXXXXXXXXXXXXX......",
"      .......XXXXXXXXXXXXXXXXXXXXXXXXXXXXXXXXXXXXXX.......      ",
"      .......XXXXXXXXXXXXXXXXXXXXXXXXXXXXXXXXXXXXXX.......      ",
"      .......XXXXXXXXXXXXXXXXXXXXXXXXXXXXXXXXXXXXXX.......      ",
"      .......XXXXXXXXXXXXXXXXXXXXXXXXXXXXXXXXXXXXXX.......      ",
"      .......XXXXXXXXXXXXXXXXXXXXXXXXXXXXXXXXXXXXXX.......      ",
"      .......XXXXXXXXXXXXXXXXXXXXXXXXXXXXXXXXXXXXXX.......      ",
"      .......XXXXXXXXXXXXXXXXXXXXXXXXXXXXXXXXXXXXXX.......      ",
"             ......................................             ",
"             ......................................             ",
"             ......................................             ",
"             ......................................             ",
"             ......................................             ",
"             ......................................             "
};
