/* XPM */
static char *_b6dbd0efd7243a6bf47bc3375be25f75mmeBrJinHZjUtzv[] = {
/* columns rows colors chars-per-pixel */
"64 64 16 1 ",
"  c black",
". c #263238",
"X c #BF360C",
"o c #D84315",
"O c #E65100",
"+ c #F4511E",
"@ c #F57C00",
"# c #FF9800",
"$ c #FFA726",
"% c #FFB74D",
"& c #311B92",
"* c #3949AB",
"= c #9C27B0",
"- c #1E88E5",
"; c #2196F3",
": c #90CAF9",
/* pixels */
"::::::::::::::::::::::::::::::::::::::::::::::::::::::::::::::::",
";;::;;;;;;::::::::::;;;;;;;;::::;;;;;;::::::;;;;::::;:::;;;;:::;",
";;;;;;;;;;;;;;;;;;;;;;;;;;;;;;;;;;;;;;;;;;;;;;;;;;;;;;;;;;;;;;;;",
";;;;;;;;;;;;;;;;;;;;;;;;;;;;;;;;;;;;;;;;;;;;;;;;;;;;;;;;;;;;;;;;",
";;;;;;;;;;;;;;;;;;;;;;;;;;;;;;;;;;;;;;;;;;;;;;;;;;;;;;;;;;;;;;;;",
";;;;;;;;;;;;;;;;;;;;;;;;;;;;;;;;;;;;;;;;;;;;;;;;;;;;;;;;;;;;;;;;",
";;;;;;;;;;;;;;;;;;;;;;;;;;;;;;;;;;;;;;;;;;;;;;;;;;;;;;;;;;;;;;;;",
";;;;;;;;;;;;;;;;;;;;;;;;;;;;;;;;;;;;;;;;;;;;;;;;;;;;;;;;;;;;;;;;",
";;;;;;;;;;;;;;;;;;;;;;;;;;;;;;;;;;;;;;;;;;;;;;;;;;;;;;;;;;;;;;;;",
";;;;;;;;;;;;;;;;;;;;;;;;;;;;;;;;;;;;;;;;;;;;;;;;;;;;;;;;;;;;;;;;",
";;;;;;;;;;;;;;;;;;;;;;;;;;;;;;;;;;;;;;;;;;;;;;;;;;;;;;;;;;;;;;;;",
";;;;;;;;;;;;;;;;;;;;;;;;;;;;;;;;;;;;;;;;;;;;;;;;;;;;;;;;;;;;;;;;",
";;;;;;;;;;;;;;;;;;;;;;;;;;;;;;;;;;;--;;;;;;;;;;;;;;;;;;;;;;;;;;;",
"-;;;;;;;----;;--;;;;;;;;;;;;;;---;;----;;;;;---;;-------;--;;---",
"--;;;;-------;--------;;;;;;;;----------------------------------",
"--;;;;------------------;;;;----------------===-=---------------",
"------------O------------------------------= ====---------------",
"----------@@@%-----------------------------======---------------",
"----------@ @%------------------------------===-=---------------",
"-------@@@@@@%--------------------------------------------------",
"------------@%--------------------------------------------------",
"----------@@%O--------------------------------------------------",
"----------@@O---------------------------------------------------",
"---------@O@O---------------------------------------------------",
"--------@@@%----------------------------------------------------",
"--------@@@%----------------------------------------------------",
"---------@@@O---------------------------------------------------",
"----------O@XO--------------------------------------------------",
"----------@O@X--------------------------------------------------",
"-----------@@X--------------------------------------------------",
"--------X---@X--------------------------------------------------",
"--------OX--XO--------------------------------------------------",
"--------OX@@XO--------------------------------------------------",
"---------O@@X---------------------------------------------------",
"-----------O----------------------------------------------------",
"----------------------------------------------------------------",
"----------------------------------------------------------------",
"----------------------------------------------------------------",
"----------------------------------------------------------------",
"----------------------------------------------------------------",
"----------------------------------------------------------------",
"----------------------------------**-------------------****-----",
"**--**-----******-----****------*******-----***-------**********",
"********--****************--********************----************",
"****************************************************************",
"****************************************************************",
"****************************************************************",
"****************************************************************",
"****************************************************************",
"****************************************************************",
"****************************************************************",
"****************************************************************",
"******************************o*************o*******************",
"*****************************oX*o*********o*oX*****&&&**********",
"****&&&&&&&**********&&&&&&**oX*oX&&&****oX*oX&&&&&&&&&&********",
"**&&&&&&&&&&******&&&&&&&&&&&oXooX&&&&&&&ooooX&&&&&&&&&&&&&&&&&&",
"&&&&&&&&&&&&&&&&&&&&&&&&&&&&&oooX&&& && &&oooX&&&&&&&&&&&&&&&&&&",
"&&&&&&&&&&&&&&&&&&&&&&&&&&&&&&oX&&&+o&o+&&&oX&&&&&&&&&&&&&&&&&&&",
"&&&&&&&&&&&&&&&.....&&&&&&&&&&&oXX+oooooo+XX......&&&&&&&.....&&",
"....&&.....&&&..###.............++oooXXoo++##.###.........###...",
"###....###.....##$########..####ooooXooXooo$###$###########$####",
"#$######$#######$$$$$$$$$##.$$$oX#ooooooX$Xo$$$$$#$$$$$$$#$$$$$#",
"$$$$$$$$$$$$$$$$$%%%%%%%$$##$%oX$oX$XXX%Xo%X%%%%$$$%%%%%$$$%%$$$",
"%%%%%%%%%%%%%%%%%%%%%%%%%%%%%%X%%X%%%%%%%X%X%%%%%%%%%%%%%%%%%%%%"
};
