/* XPM */
static char *b3c4bdd1b68f4f67a5610bdc4584d7aaClaJn9GOE2HWcFhc[] = {
/* columns rows colors chars-per-pixel */
"64 64 22 1 ",
"  c black",
". c #263238",
"X c #D84315",
"o c #880E4F",
"O c #D81B60",
"+ c #FF7043",
"@ c #EC407A",
"# c #FF9800",
"$ c #FFA726",
"% c #FFB74D",
"& c #311B92",
"* c #3949AB",
"= c #F06292",
"- c #D500F9",
"; c #1E88E5",
": c #2196F3",
"> c #42A5F5",
", c #FF8A80",
"< c #EA80FC",
"1 c #90CAF9",
"2 c #BBDEFB",
"3 c white",
/* pixels */
"1111111111111111111111111111111111111111111111111111111111111111",
"::11::::::1111111111::::::::1111::::::111111::::1111:111::::111:",
"::::::::::::::::::::::::::::::::::::::::::::::::::::::::::::::::",
"::::::::::::::::::::::::::::::::::::::::::::::::::::::::::::::::",
"::::::::::::::::::::::::::::::::::::::::::::::::::::::::::::::::",
"::::::::::::::::::::::::::::::::::::::::::::::::::::::::::::::::",
"::::::::::::::::::::::::::::::::::::::::::::::::::::::::::::::::",
"::::::::::::::::::::::::::::::::::::::::::::::::::::::::::::::::",
"::::::::::::::::::::::::::::::::::::::::::::::::::::::::::::::::",
"::::::::::::::::::::::::::::::::::::::::::::::::::::::::::::::::",
"::::::----::::::::::::::::::::::::::::::::::::::::::::::::::::::",
":::::-<<<<-:::::::::::::::::::::::::::::::::::::::::::::::::::::",
"::::-<<<<<<-::::::::::::::::::::::::::::::::::::::::::::::::::::",
";:::-< << <-::::::;;;;:::;;::::::::::;;:::::;;;::;;;;;;;:;;::;;;",
";;::-@<==<@-;::;;;;;;;;;;;;;;;;:::::;;;;;;;;;;;;;;;;;;;;;;;;;;;;",
";;::-<<<<<<-;;;;;;;;;;;;;;;;;;;;::;;;;;;;;;;;;;;;;;;;;;;;;;;;;;;",
";;;;--------;;;;;;;;;;;;;;;;;;;;;;;;;;;;;;;;;;;;;;;;;;;;;;;;;;;;",
";;;;;-;-;;-;;;;;;;;;;;;;;;;;;;;;;;;;;;;;;;;;;;;;;;;;;;;;;;;;;;;;",
";;;;-;;;-;;-;;;;;;;;;;;;;;;;;;;;;;;;;;;;;;$$X;;;;;;;;;;;;;;;;;;;",
";;;;;-;-;;-;;;;;;;;;;;;;;;;;;;;;;;;;;;;;;;;X$$;;;;;;;>>;;;;;;;;;",
";;;;-;;;-;;-;;;;;;;;;;;;;;;;;;;;;;;;;;;;;;;;$$X;;;;;>32>;;;;;;;;",
";;;;;-;-;;-;;;;;;;;;;;;;;;;;;;;;;;;;;;X;;;;;XX+X;;;;>22>;;;;;;;;",
";;;;;;;;;;;;;;;;;;;;;;;;;;;;;;;;;;;;;;$X;;;$XXX+$;;;;>>;;;;;;;;;",
";;;;;;;;;;;;;;;;;;;;;;;;;;;;;;;;;;;;;;;XX;$$$XX++$;;;;;;;;;;;;;;",
";;;;;;;;;;;;;;;;;;;;;;;;;;;;;;;;;;;;;;;$X$$$XXX+ $$;;;;;;;;;;;;;",
";;;;;;;;;;;;;;;;;;;;;;;;;;;;;;;;;;;;;;;$X$$$XXX++$$;;;;;;;;;;;;;",
";;;;;;;;;;;;;;;;;;;;;;;;;;;;;;;;;;;;;;;XX;$$$XX++$;;;;;;;;;;;;;;",
";;;;;;;;;;;;;;;;;;;;;;;;;;;;;;;;;;;;;;$X;;;$XXX+$;;;;;;;;;;;;;;;",
";;;;;;;;;;;;;;;;;;;;;;;;;;;;;;;;;;;;;;X;;;;;XX+X;;;;;;;;;;;;;;;;",
";;;;;;;;;;;;;;;;;;;;;;;;;;;;;;;;;;;;;;;;;;;;$$X;;;;;;;;;;;;;;;;;",
";;;;;;;;;;;;;;;;;;;;;;;;;;;;;;;;;;;;;;;;;;;X$$;;;;;;;;;;;;;;;;;;",
";;;;;;;;;;;;;;;;;;;;;;;;;;;;;;;;;;;;;;;;;;$$X;;;;;;;;;;;;;;;;;;;",
";;;;;;;;;;;;;;;;;;;;;;;;;;;;;;;;;;;;;;;;;;;;;;;;;;;;;;;;;;;;;;;;",
";;;;;;;;;;;;;;;;;;;;;;;;;;;;;;;;;;;;;;;;;;;;;;;;;;;;;;;;;;;;;;;;",
";;;;;;;;;;;;;;;;;;;;;;;;;;;;;;;;;;;;;;;;;;;;;;;;;;;;;;;;;;;;;;;;",
";;;;;;;;;;;;;;;;;;;;;;;;;;;;;;;;;;;;;;;;;;;;;;;;;;;;;;;;;;;;;;;;",
";;;;;;;;;;;;;;;;;;;;;;;;;;;;;;;;;;;;;;;;;;;;;;;;;;;;;;;;;;;;;;;;",
";;;;;;;;;;;;;;;;;;;;;;;;;;;;;;;;;;;;;;;;;;;;;;;;;;;;;;;;;;;;;;;;",
";;;;;;;;;;;;;;;;;;;;;;;;;;;;;;;;;;;;;;;;;;;;;;;;;;;;;;;;;;;;;;;;",
";;;;;;;;;;;;;;;;;;;;;;;;;;;;;;;;;;;;;;;;;;;;;;;;;;;;;;;;;;;;;;;;",
";;;;;;;;;;;;;;;;;;;;;;;;;;;;;;;;;;;;;;;;;;;;;;;;;;;;;;;;;;;;;;;;",
";;;;;;;;;;;;;;;;;;;;;;;;;;;;;;;;;;;;;;;;;;;;;;;;;;;;;;;;;;;;;;;;",
"**;;**;;;;;******;;;;;****;;;;;;;;*****;;;;;;******;;;;;;;;;;***",
"********;;****************;;**;;;*******;;;;********************",
"****************************************************************",
"****************************************************************",
"****************************************************************",
"****************************************************************",
"****************************************************************",
"****************************************************************",
"****************************************************************",
"****************************************************************",
"****************************************************************",
"***********************************&&&**************************",
"****&&&&&&&**********&&&&&&******&&&&&&*****&&&&***&&&&&********",
"**&&&&&&&&&&******&&&&&&&&&&&&&&*&&&&&&&&&&&&&&&&&&&&&&&&&***&&&",
"&&&&&&&&&&&&&&&&&&&&&&&&&&&&&&&&&&&&&&&&&&&&&&&&&&&&&&&&&&&&&&&&",
"&&&&&&&&&&&&&&&&&&oooooo&&&&&&&&&&&&&&&&&&&&&&&&&&&&&&&&&&&&&&&&",
"&&.......&&&&&&ooooOOOO,o&&&&&&&&&&.....&.........&&&&&&&.....&&",
"...#####.&&&&ooOo,,oOOOO,o&&........###...###.###.........###...",
"####$$$#....oOo,o,,,oOOO,o&&####..###$#####$###$###########$####",
"#$$$$%$######oooO,,,,oOOO,o.$$$####$$$$$$$$$$$$$$#$$$$$$$#$$$$$#",
"$$$%%%$$$$$$$$$ooOOOOOoooooo$%$$$$$$%%%%%%%%%%%%$$$%%%%%$$$%%$$$",
"%%%%%%%%%%%%%%%%%oooooo%%%%%%%%%%%%%%%%%%%%%%%%%%%%%%%%%%%%%%%%%"
};
