/* XPM */
static char *a9b5fa9f53cd4205af84974ec508d830x8v7fajQYs0p1oDv[] = {
/* columns rows colors chars-per-pixel */
"64 64 20 1 ",
"  c black",
". c #263238",
"X c #2E7D32",
"o c #BF360C",
"O c #D50000",
"+ c #FF3D00",
"@ c #D84315",
"# c #388E3C",
"$ c #43A047",
"% c #FF9800",
"& c #FFAB00",
"* c #FFA726",
"= c #FFB74D",
"- c #311B92",
"; c #3949AB",
": c #9C27B0",
"> c #1E88E5",
", c #2196F3",
"< c #90CAF9",
"1 c white",
/* pixels */
"<<<<<<<<<<<<<<<<<<<<<<<<<<<<<<<<<<<<<<<<<<<<<<<<<<<<<<<<<<<<<<<<",
",,<<,,,,,,<<<<<<<<<<,,,,,,,,<<<<,,,,,,<<<<<<,,,,<<<<,<<<,,,,<<<,",
",,,,,,,,,,,,,,,,,,,,,,,,,,,,,,,,,,,,,,,,,,,,,,,,,,,,,,,,,,,,,,,,",
",,,,,,,,,,,,,,,,,,,,,,,,,,,,,,,,,,,,,,,,,,,,,,,,,,,,,,,,,,,,,,,,",
",,,,,,,,,,,,,,,,,,,,,,,,,,,&&&,&,,,,,,,,,,,,,,,,,,,,,,,,,,,,,,,,",
",,,,,,,,,,,,,,,,,,,,,,,,,,& &&&&,,,,,,,,,,,,,,,,,,,,,,,,,,,,,,,,",
",,,,,,,,,,,,,,,,,,,,,,,,,,&&&&&&,,,,,,,,,,,,,,,,,,,,,,,,,,,,,,,,",
",,,,,,,,,,,,,,,,,,,,,,,,,,,&&&,&,,,,,,,,,,,,,,,,,,,,,,,,,,,,,,,,",
",,,,,,,,,,,,,,,,,,,,,,,,,,,,,,,,,,,,,,,,,,,,,,,,,,,,,,,,,,,,,,,,",
",,,,,,,,,,,,,,,,,,,,,,,,,,,,,,,,,,,,,,,,,,,,,,,,,,,,,,,,,,,,,,,,",
",,,,,,,,,,,,,,,,,,,,,,,,,,,,,,,,,,,,,,,,,,,,,,,,,,,,,,,,,,,,,,,,",
",,,,,,,,,,,,,,,,,,,,,,,,,,,,,,,,,,,,,,,,,,,,,,,,,,,,,,,,,,,,,,,,",
",,,,,,,,,,,,,,,,,,,,,,,,,,,,,,,,,,,,,,,,,,,,,,,,,,,,,,,,,,,,,,,,",
">,,,,,,,,,,,,,,,,,>>>>,,,>>,,,,,,,,,,>>,,,,,>>>,,>>>>>>>,>>,,>>>",
">>,,,,>>>>,,>,,>>>>>>>>>>>>>>>>,,,,,>>>>>>>>>>>>>>>>>>>>>>>>>>>>",
">>,,>>>>>>,>>>>>>>>>>>>>>>>>>>>>,,>>>>>>>>>>>>>>>>>>>>>>>>>>>>>>",
">>>>>>>>>>>>>>>>>>>>>>>>>>>>>>>>>>>>>>>>>>>>>>>>>>>>>>>>>>>>>>>>",
">>>>>>>>>>>>>>>>>>>>>>>>>>>>>>>>>>>>>>>>>>>>>>>>>>>>>>>>>>>>>>>>",
">>>>>>>>>>>>>>>>>>>>>>>>>>>>>>>>>>>>>>>>>>>>>>>>>>>>>>>>>>>>>>>>",
">>>>>>>>>>>>>>>>>>>>>>>>>>>>>>>>>>>>>>>>>>>>>>>>>>>>>>>>>>>>>>>>",
">>>>>>>>>>>>>>>>>>>>>>>>>>>>>>>>>>>>>>>>>>>>>>>>>>>>>>>>>>>>>>>>",
">>>>>>>>>>>+++++@>>>>>>>>>>>>>>>>>>>>>>>>>>>>>>>>>>>>>>>>>>>>>>>",
">>>>>>>>>>1111++++@>>>>>>>>>>>>>>>>>>>>>>>>>>>>>>>>>>>>>>>>>>>>>",
">>>>>>>>11++111+++++>>>>>>>>>>>>>>>>>>>>>>>>>>>>>>>>>>>>>>>>>>>>",
">>>>>>>>+++++111++++1+@>>>>>>>>>>>>>>>>>>>>>>>>>>>>>>>>>>>>>>>>>",
">>>>>>>+++++++11++++1+++@>>>>>>>>>>>>>>>>>>>>>>>>>>>>>>>>>>>>>>>",
">>>>>>+++++++++11+++1+++++1>>++++>>>>>>>>>>>>>>>>>>>>>>>>>>>>>>>",
">>>>>>+++++11+++11++11++++1+++++++>>>>>>>>>>>>>>>>>>>>>>>>>>>>>>",
">>>>>>11++1  1++11+++1++++1+++++oo>>>>>>>>>>>>>>>>>>>>>>>>>>>>>>",
">>>>>1  1+1  1+++11++1++++1+++++++>>>>>>>>>>>>>>>>>>>>>>>>>>>>>>",
">>>>>1  1++11++++11++1+++1++++++oo>>>>>>>>>>>>>>>>>>>>>>>>>>>>>>",
">>>>>>11++++++++++1++11++1++++++++>>>>>>>>>>>>>>>>>>>>>>>>>>>>>>",
">>>>>>+++++++O++++1+++1++1+@@@++oo>>>>>>>>>>>>>>>>>>>>>>>>>>>>>>",
">>>>>>+++OOOO+++++1+++1@>>>>>>@@@@>>>>>>>>>>>>>>>>>>>>>>>>>>>>>>",
">>>>>>>@+++++++++@1@@@1@>>>>>>>>>>>>>>>>>>>>>>>>:::>:>>>>>>>>>>>",
">>>>>>>>@@@@@@@@++@>>>>>>>>>>>>>>>>>>>>>>>>>>>>: ::::>>>>>>>>>>>",
">>>>>>>>>>>>>>>@++@>>>>>>>>>>>>>>>>>>>>>>>>>>>>::::::>>>>>>>>>>>",
">>>>>>>>>>>>>>>@++@>>>>>>>>>>>>>>>>>>>>>>>>>>>>>:::>:>>>>>>>>>>>",
">>>>>>>>>>>>>>>>@@>>>>>>>>>>>>>>>>>>>>>>>>>>>>>>>>>>>>>>>>>>>>>>",
">>>>>>>>>>>>>>>>>>>>>>>>>>>>>>>>>>>>>>>>>>>>>>>>>>>>>>>>>>>>>>>>",
">>>>>>>>>>>>>>>>>>>>>>>>>>>>>>>>>>>>>>>>>>>>>>>>>>>>>>>>>>>>>>>>",
">>>>>>>>>>>>>>>>>>>>>>>>>>>>>>>>>>>>>>>>>>>>>>>>>>>>>>>>>>>>>>>>",
";;>>;;>>>>>;;;;;;>>>>>;;;;>>>>>>>>;;;;;>>>>>>;;;;;;>>>>>>>>>>;;;",
";;;;;;;;>>;;;;;;;;;;;;;;;;>>;;>>>;;;;;;;>>>>;;;;;;;;;;;;;;;;;;;;",
";;;;;;;;;;;;;;;;;;;;;;;;;;;;;;;;;;;;;;;;;;;;;;;;;;;;;;;;;;;;;;;;",
";;;;;;;;;;;;;;;;;;;;;;;;;;;;;;;;;;;;;;;;;;;;;;;;;;;;;;;;;;;;;;;;",
";;;;;;;;;;;;;;;;;;;;;;;;;;;;;;;;;;;;;;;;;;;;;;;;;;;;;;;;;;;;;;;;",
";;;;;;;;;;;;;;;;;;;;;;;;;;;;;;;;;;;;;;;;;;;;;;;;;;;;;;;;;;;;;;;;",
";;;;;;;;;;;;;;;;;;;;;;;;;;;;;;;;;;;;;;;;;;;;;;;;;;;;;;;;;;;;;;;;",
";;;;;;;;;;;;;;;;;;;;;;;;;;;;;;;;;;;;;;;;;;;;;;;;;;;;;;;;;;;;;;;;",
";;;;;;;;;;;;;;;;;;;;;;;;;;;;;;;;;;;;;;;;;;;;;;;;;;;;;;;;;;;;;;;;",
";;;;;;;;;;;;;;;;;;;;;;;;;;;;;;;;;;;;;;;;;;;;;;;;;;;;;;;;;;;;;;;;",
";;;;;;;;;;;;;;;;;;;;;;;;;;;;;;;;;;;;;;;;;;;;;;;;;;;;;;;;;;;;;;;;",
";;;;;;;;;;;;;;;;;;;;;;;;;;;;;;;;;;;---;;;;;;;;;;;;;---;;;;;;;;;;",
";;;;;;;;;;;;;;;;;;;;;;;;;;;;;;;;;------;;;;;----;;;-----;;;;;;;;",
";;-----;;;----;;;-----;;;#;-----;-------------------------;;;---",
"-------------------#----#$---#----------------------------------",
"------------------###---#X--##----------------------------------",
"--......----......X##.-##X-##X-----.....-.........-------.....--",
"...%%%%......%%*%%X###.##--##.......%%%...%%%.%%%.........%%%...",
"%%%%%%%%%%%%%%*****X#####-##X%%%..%%%*%%%%%*%%%*%%%%%%%%%%%*%%%%",
"%**%******%****====*X######XX%*%%%%**************%*******%*****%",
"*****===****=========X####XX********============***=====***==***",
"======================X##XX====================================="
};
