/* XPM */
static char *a301530fc2f746c0d9294bb09799ca66aT2ikYmqPFD61tFF[] = {
/* columns rows colors chars-per-pixel */
"64 64 16 1 ",
"  c black",
". c #263238",
"X c #FF3D00",
"o c #D84315",
"O c #4CAF50",
"+ c #FF9800",
"@ c #FFAB00",
"# c #FFA726",
"$ c #FFB74D",
"% c #311B92",
"& c #3949AB",
"* c #9C27B0",
"= c #1E88E5",
"- c #2196F3",
"; c #90CAF9",
": c white",
/* pixels */
";;;;;;;;;;;;;;;;;;;;;;;;;;;;;;;;;;;;;;;;;;;;;;;;;;;;;;;;;;;;;;;;",
"--;;------;;;;;;;;;;--------;;;;------;;;;;;----;;;;-;;;----;;;-",
"----------------------------------------------------------------",
"----------------------------------------------------------------",
"---------------------------@@@-@--------------------------------",
"--------------------------@ @@@@--------------------------------",
"--------------------------@@@@@@--------------------------------",
"---------------------------@@@-@--------------------------------",
"----------------------------------------------------------------",
"----------------------------------------------------------------",
"----------------------------------------------------------------",
"----------------------------------------------------------------",
"----------------------------------------------------------------",
"=-----------------====---==----------==-----===--=======-==--===",
"==----====--=--================-----============================",
"==--======-=====================--==============================",
"================  ==============================================",
"=============   XX  ============================================",
"==========   XXXXXXX ===========================================",
"========= XXXXXXXXXXX ==========================================",
"========= XXXXXXXXXXX ==========================================",
"========= XXXXXXXXXX ===========================================",
"========  ::  XXXXXX  ==  ======================================",
"======= ::  :: XXXXX X  XX =====================================",
"=======   XX :: XXXX XXX X =====================================",
"====== XXXXXX ::XXX X  XX   ==   ===============================",
"====== XXXXXXX : X X : XX :   XXX ==============================",
"====== XXXX::XX :  X : XX : XXXXXX =============================",
"======::XX:  :XX:  X : XX : XXXX   =============================",
"=====:  :X:  :XX : X :XXX : XXXXXX =============================",
"=====:  :XX::XXX : X :XX : XXXXX   =============================",
"======::XXXXXXXXX : ::XX : XXXXXXX =============================",
"====== XXXXXX XXX : ::XX : XXXXX   =============================",
"====   XX    XXXX : ::Xo  = ooXXXX =============================",
"=== oX oXXXXXXXX o : :oo ===  oooo =============***=*===========",
"=== ooo ooooooo X       =====     =============* ****===========",
"===    =        o =============================******===========",
"===============   ==============================***=*===========",
"================================================================",
"================================================================",
"================================================================",
"================================================================",
"&&==&&=====&&&&&&=====&&&&========&&&&&======&&&&&&==========&&&",
"&&&&&&&&==&&&&&&&&&&&&&&&&==&&===&&&&&&&====&&&&&&&&&&&&&&&&&&&&",
"&&&&&&&&&&&&&&&&&&&&&&&&&&&&&&&&&&&&&&&&&&&&&&&&&&&&&&&&&&&&&&&&",
"&&&&&&&&&&&&&&&&&&&&&&&&&&&&&&&&&&&&&&&&&&&&&&&&&&&&&&&&&&&&&&&&",
"&&&&&&&&&&&&&&&&OOO&O&&&&&&&&&&&&&&&&&&&&&&&&&&&&&&&&&&&&&&&&&&&",
"&&&&&&&&&&&&&&&O OOOO&&&&&&&&&&&&&&&&&&&&&&&&&&&&&&&&&&&&&&&&&&&",
"&&&&&&&&&&&&&&&OOOOOO&&&&&&&&&&&&&&&&&&&&&&&&&&&&&&&&&&&&&&&&&&&",
"&&&&&&&&&&&&&&&&OOO&O&&&&&&&&&&&&&&&&&&&&&&&&&&&&&&&&&&&&&&&&&&&",
"&&&&&&&&&&&&&&&&&&&&&&&&&&&&&&&&&&&&&&&&&&&&&&&&&&&&&&&&&&&&&&&&",
"&&&&&&&&&&&&&&&&&&&&&&&&&&&&&&&&&&&&&&&&&&&&&&&&&&&&&&&&&&&&&&&&",
"&&&&&&&&&&&&&&&&&&&&&&&&&&&&&&&&&&&&&&&&&&&&&&&&&&&&&&&&&&&&&&&&",
"&&&&&&&&&&&&&&&&&&&&&&&&&&&&&&&&&&&%%%&&&&&&&&&&&&&%%%&&&&&&&&&&",
"&&&&&&&&&&&&&&&&&&&&&&&&&&&&&&&&&%%%%%%&&&&&%%%%&&&%%%%%&&&&&&&&",
"&&%%%%%&&&%%%%%%%%%%&&&&&%%%%%%%&%%%%%%%%%%%%%%%%%%%%%%%%%&&&%%%",
"%%%%%%%%%%%%%%%%%%%%%&&&%%%%%%%%%%%%%%%%%%%%%%%%%%%%%%%%%%%%%%%%",
"%%%%%%%%%%%%%%%%%%%%%%%%%%%%%%%%%%%%%%%%%%%%%%%%%%%%%%%%%%%%%%%%",
"%%......%%%%........%%%%%%%%%%%%%%%.....%.........%%%%%%%.....%%",
"...++++......++++++....%%%..........+++...+++.+++.........+++...",
"++++++++++++++####++++.....+++++..+++#+++++#+++#+++++++++++#++++",
"+##+######+####$$####+++++++###++++##############+#######+#####+",
"#####$$$####$$$$$$$$#########$######$$$$$$$$$$$$###$$$$$###$$###",
"$$$$$$$$$$$$$$$$$$$$$$$$$$$$$$$$$$$$$$$$$$$$$$$$$$$$$$$$$$$$$$$$"
};
