/* XPM */
static char *e7839c3b790a4ad3d6c834ef5bd83b3cagLM4vyieyd79GuI[] = {
/* columns rows colors chars-per-pixel */
"64 64 8 1 ",
"  c None",
". c black",
"X c gray26",
"o c gray38",
"O c #D84315",
"+ c #EC407A",
"@ c gray62",
"# c white",
/* pixels */
"                                                                ",
"                                                                ",
"                                                                ",
"                                                                ",
"                                                                ",
"                                                                ",
"                                                                ",
"                          +++++++++                             ",
"                          +++++++++                             ",
"                         ++++++++++++                           ",
"             +++       +++++++++++++++          +++             ",
"            +++++      +++++++++++++++         +++++            ",
"           +++++++    +++++++++++++++++       ++ooo++           ",
"          ++ooo++++   +++++++++++++++++      +++o ooo+          ",
"          ++o o++++  +++++++++++++++++++     +++o   o+          ",
"          ++   ++++  +++++++++++++++++++     +++o   o++         ",
"          ++   ++++ +++++++++++++++++++++    +++o    ++         ",
"               ++++ +++++####++++####++++    ++++               ",
"               ++++ +++++####++++####++++    +++++              ",
"             +++++  +++++#X##++++#X##++++     +++++             ",
"            ++++     ++++#.##++++#.##+++      +++++             ",
"           ++++       +++#.##++++#.##++       ++++++            ",
"          ++++        +++####++++####++        ++++++           ",
"          +++         +++++++++++++++++         +++++           ",
"          ++++         +++++++++++++++          +++++           ",
"           ++++ ++++++ +++O+++++++O+++ ++     +++++++           ",
"           +++++++@@+++   +OOOOOOO+   ++++++++++++++            ",
"            ++++++@@+++   +OOOOOOO+   +++++++++++++             ",
"              ++@@+++++++++++++++++++++@@@+++++++++             ",
"                ++++++++++++++++++++++++++@@+++++               ",
"                ++++++++++++++++++++++++++@@++++                ",
"                +++++++@@++++++++++++@++++++                    ",
"                +++++++@@++++++++++++@++++++                    ",
"               ++++++++@@++++++++++++@++++++                    ",
"              +++++oooo++++++++++++++@ooo+++                    ",
"              +++++o  o++++++++++++++@  o+++                    ",
"      ++++   +++++oo     ++++++++++++   o++++                   ",
"    ++++++++++++++       ++++@+++++++   oo++++        ++++      ",
"   +++ +++++++++++       ++++@+++++++    o+++++      ++++++     ",
"   +oo   +++++++         ++++@+++++++    o++++++   +++++o+++    ",
"   +       ++          ++++++ @@@+++++      ++++++++++oooo++    ",
"   ++               +++++++++ @@@+++++++    ++++++++++    ++    ",
"   ++           +++++++++++++    +++++++++++ +++++++      ++    ",
"               +++++++++++++      +++++ooo+++  ++++      +++    ",
"               ++++++++++++       +++++o o+++           ++++    ",
"             +++++ooooooo          ++ooo  oo++                  ",
"          ++++++++o                       oo+++++               ",
"       +++++++++oo                         oo++++++++           ",
"      ++++++++++o                           o+++++++++          ",
"      ++o   +++o                                   oo+++        ",
"      ++                                              ++        ",
"      ++++                                          ++++        ",
"       +++                                          +++         ",
"                                                                ",
"                                                                ",
"                                                                ",
"                                                                ",
"                                                                ",
"                                                                ",
"                                                                ",
"                                                                ",
"                                                                ",
"                                                                ",
"                                                                "
};
