/* XPM */
static char *_7155cb89f0148cee13fb045b67fe8cdJGyBY5d0sGsIK9Mn[] = {
/* columns rows colors chars-per-pixel */
"64 64 6 1 ",
"  c None",
". c black",
"X c gray38",
"o c #8F0B0B",
"O c #D50000",
"+ c white",
/* pixels */
"                                                                ",
"                                                                ",
"                                                                ",
"                                                                ",
"                                                                ",
"                                                                ",
"                                                                ",
"                          OOOOOOOOO                             ",
"                          OOOOOOOOO                             ",
"                         OOOOOOOOOOOO                           ",
"             OOO       OOOOOOOOOOOOOOO          OOOO            ",
"            OOOOO      OOOOOOOOOOOOOOO         OOOOOO           ",
"           OOOOOOO    OOOOOOOOOOOOOOOOO       OOXXXOOO          ",
"          OOXXXOOOO   OOOOOOOOOOOOOOOOO      OOOX XXXO          ",
"          OOX XOOOO  OOOOOOOOOOOOOOOOOOO     OOOX   XOO         ",
"          OO   OOOO  OOOOOOOOOOOOOOOOOOO     OOOX   XOO         ",
"          OO   OOOO OOOOOOOOOOOOOOOOOOOOO    OOOX    OO         ",
"               OOOO OOOOO++++OOOO++++OOOO    OOOO               ",
"              OOOOO OOOOO++++OOOO++++OOOO    OOOOO              ",
"             OOOOO  OOOOO+O++OOOO+O++OOOO     OOOOO             ",
"            OOOO     OOOO+.++OOOO+.++OOO      OOOOO             ",
"           OOOO       OOO+.++OOOO+.++OO       OOOOOO            ",
"          OOOO        OOO++++OOOO++++OO        OOOOOO           ",
"          OOO         OOOOOOOOOOOOOOOOO         OOOOO           ",
"          OOOO         OOOOOOOOOOOOOOO          OOOOO           ",
"           OOOOOOOOO   OOOOOoooooOOOOO         OOOOOO           ",
"           OOOOOOOOOO     OOo...oOO     OOOOOOOOOOOO            ",
"            OOOOOOOOOO    OOo...oOO    OOOOOOOOOOOO             ",
"              OOOOOOOOOOOOOOoooooOOOOOOOOOOOOOOOOOO             ",
"                OOOOOOOOOOOOOOOOOOOOOOOOOOOOOOOOO               ",
"                OOOOOOOOOOOOOOOOOOOOOOOOOOOOOOOO                ",
"                OOOOOOOOOOOOOOOOOOOOOOOOOOOOO                   ",
"                OOOOOOOOOOOOOOOOOOOOOOOOOOOO                    ",
"               OOOOOOOOOOOOOOOOOOOOOOOOOOOOO                    ",
"              OOOOOXXXXOOOOOOOOOOOOOOXXXXOOO                    ",
"              OOOOOX  XOOOOOOOOOOOOOOX  XOOO                    ",
"      OOOO   OOOOOXX     OOOOOOOOOOOO   XOOOO                   ",
"    OOOOOOOOOOOOOO       OOOOOOOOOOOO   XXOOOO        OOOO      ",
"   OOO OOOOOOOOOOO       OOOOOOOOOOOO    XOOOOO      OOOOOO     ",
"  OOXX   OOOOOOO         OOOOO  OOOOO    XOOOOOO   OOOOOXOOO    ",
"  OO       OOO         OOOOOO    OOOOO      OOOOOOOOOOXXXXOO    ",
"  OOO               OOOOOOOOO    OOOOOOO     OOOOOOOOO    OO    ",
"   OO           OOOOOOOOOOOOO    OOOOOOOOOOO  OOOOOO      OO    ",
"               OOOOOOOOOOOOO      OOOOOOOOOOO  OOOO      OOO    ",
"               OOOOOOOOOOOO       OOOOOOOOOOO           OOOO    ",
"             OOOOOXXXXXXX          OOXXXXXXOOO                  ",
"          OOOOOOOOX                       XXOOOOO               ",
"       OOOOOOOOOXX                         XXOOOOOOOO           ",
"      OOOOOOOOOOX                           XOOOOOOOOOO         ",
"      OOX   OOOX                                   XXOOO        ",
"      OO                                              OO        ",
"      OOOO                                          OOOO        ",
"       OOO                                          OOO         ",
"                                                                ",
"                                                                ",
"                                                                ",
"                                                                ",
"                                                                ",
"                                                                ",
"                                                                ",
"                                                                ",
"                                                                ",
"                                                                ",
"                                                                "
};
