/* XPM */
static char *_4f80807b0984b5e9f7c0db5285e2272gqGASdfrKzbDjidk[] = {
/* columns rows colors chars-per-pixel */
"64 64 12 1 ",
"  c #E65100",
". c #EF6C00",
"X c #F57C00",
"o c #FB8C00",
"O c #FF8F00",
"+ c #FF9800",
"@ c #FFAB00",
"# c #FFB300",
"$ c #FFA726",
"% c #FFC107",
"& c #FFCA28",
"* c #FFB74D",
/* pixels */
"****%**@***@****#**+****##*******************o*******%****+*****",
"**+*************************+*****X*********%*****************%*",
"*****+****+****o******X**************O**+***%**$***o*******O**%*",
"**#****************#**********&************************$*#***#**",
"*******o*****+*************+******%******&#**#***@**************",
"****$*******#****$**O**@*************#O*************#*******&***",
"#+*******@********&************+**$**********o*********X***o**#*",
"***********&****+*****#**+***************+*******+**************",
"******#*******o****************&****@******%**%*****+***********",
"***X***%*+*********o********$*******************************$***",
"************@********+*@**********X****o**$**#***+**%****O******",
"***************X**#**********O*#****O***************************",
"***&*+**O****************+**************%******$******+****#***o",
"*+*******************$*********************o******&******+******",
"***********o***@**+**********+******+***@*************&*********",
"*********$***********************@************@****+*******&*#**",
"*****O#******+*#*****O**+****&*****#********%***X***************",
"***+****O********#%************+*****O****+***********+******O**",
"*********************o************%************#*********$******",
"**************&**********$**o************%**+*****+*************",
"*o**@***o***+*****O***************+***o***************@******o**",
"****************+****$*******************#***************O******",
"#%***O****+*************o***@***@********@***+*+***%*+**********",
"*************&****+***********%******+*******@******+***o*******",
"***+*******$*********@******o****o*@**********************#**X**",
"*******+*******+*********@*************@**o***#*%*+*************",
"*+****************%*****************@***********%*****+**%******",
"*****X****O*********o*****o***@***+*******@*********************",
"*************$****+***@****&**********&*******$******O**#**+***@",
"**O#****+**************************o*****o******O**+****O*******",
"*****&*********#**..*******+****+************#******************",
"***********%******..**o***o********@**@******+***************o**",
"************o**@**.O.****************************+***o***%******",
"#******+**********...*******o*********&**@***+******************",
"**$*%*********&***.O..**$*****@***********************#***+*****",
"**********+*****#*....*******...**o*@***@**********X********&***",
"********+****@**@*..O..**....O..************#**********%*******@",
"****@******%******.........O...*******o********o****************",
"******+**********...O....O....***************%*******$***o***%**",
"*+*****%******.........O.....***%**@****@********+*****+********",
"****$***%**.......O.. ......********************%***@********X**",
"*********..O.O.O...........****+*****+*****&*+************%*****",
"*********...........O..O...******%*****************************#",
"*#****O*#**.................*******@****@****@*****$****$*******",
"*********#***..*...O.....O...*&*****#**********************O**+*",
"****X************.....*....O.***o*********+*****o****#**********",
"*%*****&*********..O.***......***%****o******%*********#********",
"***********@**@**....*****...O.********************&**%%***+****",
"**@*****O********.O.**+*****...***+********#****+*************O*",
"******#*******@**...*********************@*********$***o********",
"****%************..******&****@**O***o******%********O****O*****",
"o*******+***$*&**..****************************+****************",
"****+***********%.*********+*******@******o************$****o***",
"**#***@****O********O***+*******+*****************o**O**********",
"******&***********+********O*******#**$**#****X************%***#",
"**********+*@**#***********************************&*****O***+**",
"*+***************@***@****+***+*****%*****************X*********",
"******X********%******************o***@***+*************O*******",
"***O****+****#******************************O***+**@********+***",
"*******#**+******+****X**&***+******$********************+******",
"*********************************#******o**%*******#***********O",
"****$%*******&***O********o**%************************$*********",
"*+********$*********+**********X****+**%**&**#*O**+***++*#**$***",
"*******#*******+*********O**************************************"
};
