/* XPM */
static char *_0f03a20880b46bdd46791c1bfa1a5f7fMv88BB0lAyaFgJ2[] = {
/* columns rows colors chars-per-pixel */
"64 64 12 1 ",
"  c None",
". c #8F0B0B",
"X c #B71C1C",
"o c #DD2C00",
"O c #E64A19",
"+ c #F57C00",
"@ c #E91E63",
"# c #FF9800",
"$ c #FFB74D",
"% c #42A5F5",
"& c #BBDEFB",
"* c white",
/* pixels */
"                                                                ",
"                                                                ",
"                                                                ",
"                        XXXXXXXXXXXXXXXXXXXX                    ",
"                      XXXXXXXXXXXXXXXXXXXXXXX                   ",
"                     XXXXXXXXXXXXXXXXXXXXXXXXX                  ",
"                    XXXXXXoOOXXo++oXX++OXXXXXXX                 ",
"                   XXXXX++oOOXXo++oXX++OooXXXXXX                ",
"                   XXXXX++oOOXXo++oXX++OooXXXXXX                ",
"                   XXXXX++oOOXXo++oXX++Ooo++XXXX                ",
"                   XXX++++OooXXo++oXXOOo+++++XXX                ",
"                   XXXooXXOooXXo++oXXOOo++XXoXXX                ",
"                   XXXooXXOooXXo++oXXOOo++XXoXXX                ",
"                   XXXooXXOoooXXooXXoOOo++XXoXXX                ",
"                   XXX##ooXOOoXXooXXoOO+XXoo#XXX                ",
"                   XXXXXooXOOoXXooXXOoo+XXooXXXX                ",
"                   XXXXXooXOOooXooXOOoo+XXooXXXX                ",
"                    XX$$XXoXXoooXXoooooXooXX$XX                 ",
"                     XXX$$XooXXoXXoooXXoXX$$XX                  ",
"                      XX$$XooX%%%%%%%%XoXX$$X                   ",
"                       XXX$XX***&&&&&&&X$$XX                    ",
"                          XX%***&&&&&&&%XX                      ",
"                          XX%***&&&&&&&%XX                      ",
"                          XX%&&&&&&&&&&%XX                      ",
"                    XXXXXX+O%&&&&&&&&&&%++XXXXX                 ",
"                   oooOO++Oo%&&&&&&&&&&%OO++Oooo                ",
"                  XooO++OOO@%&&&&&&&&&&%@OOO+OOoX               ",
"                  XooO++OO@@@&&&&&&&&&&@@@OO+OOoX               ",
"                  XOO+OOO@@@@@%%%%%%%%@@@@@OO++OX               ",
"                  XOOOOOOOOOO@@@@@@@@@@OOOOOOOOOX               ",
"                  XOOOOOOOOOOOOOOOOOOOOOOOOOOOOOX               ",
"                   XXoOOOOooooooooooooooooOOOooX                ",
"                    XXXXXXXXXXXXXXXXXXXXXXXXXXX                 ",
"                     XXXXXXXXXXXXXXXXXXXXXXXXX                  ",
"                      XXXXXXXXXXXXXXXXXXXXXXX                   ",
"                       .....................                    ",
"                                                                ",
"                                                                ",
"                                                                ",
"                                                                ",
"                                                                ",
"                                                                ",
"                                                                ",
"                                                                ",
"                                                                ",
"                                                                ",
"                                                                ",
"                                                                ",
"                                                                ",
"                                                                ",
"                                                                ",
"                                                                ",
"                                                                ",
"                                                                ",
"                                                                ",
"                                                                ",
"                                                                ",
"                                                                ",
"                                                                ",
"                                                                ",
"                                                                ",
"                                                                ",
"                                                                ",
"                                                                "
};
