/* XPM */
static char *_9fdcfb7af3b461595c48aed4a72088a4Twnf0f9WP811IzM[] = {
/* columns rows colors chars-per-pixel */
"160 90 3 1 ",
"  c None",
". c #795548",
"X c gray62",
/* pixels */
"XX       XX                                                                                                                                                     ",
"XXXX     XXXX                                                                                                                                                   ",
" XXXXX    XXXX                                                                                                                                                  ",
" XXXXXXX  XXXXX                                                                                                                                                 ",
"  XXXXXXX  XXXXX                                                                                                                                                ",
"  XXXXXXXX  XXXXX                                                                                                                                               ",
"   XXXXXXXX  XXXX                                                                                                                                               ",
"   XXXXXXXXX  XXXX                                                                                                                                              ",
"    XXXXXXXXX  XXX                                                                                                                                              ",
"XX   XXXXXXXXXXXXX                                                                                                                                              ",
"XXXX  XXXXXXXXXXXX                                                                                                                                              ",
" XXXX  XXXXXXXXXXX                                                                                                                                              ",
" XXXXX  XXXXXXXX.                                                                                                                                               ",
"  XXXXX  XXXXXX...                                                                                                                                              ",
"   XXXXX XXXXX.....                                                                                                                                             ",
"    XXXXXXXXX.......                                                                                                                                            ",
"     XXXXXXX.........                                                                                                                                           ",
"       XXXXX .........                                                                                                                                          ",
"              .........                                                                                                                                         ",
"               .........                                                                                                                                        ",
"                .........                                                                                                                                       ",
"                 .........                                                                                                                                      ",
"                  .........                                                                                                                                     ",
"                   .........                                                                                                                                    ",
"                    .........                                                                                                                                   ",
"                     .........                                                                                                                                  ",
"                      .........                                                                                                                                 ",
"                       .........                                                                                                                                ",
"                        .........                                                                                                                               ",
"                         .........                                                                                                                              ",
"                          .........                                                                                                                             ",
"                           .........                                                                                                                            ",
"                            .........                                                                                                                           ",
"                             .........                                                                                                                          ",
"                              .........                                                                                                                         ",
"                               .........                                                                                                                        ",
"                                .........                                                                                                                       ",
"                                 .........                                                                                                                      ",
"                                  .........                                                                                                                     ",
"                                   .........                                                                                                                    ",
"                                    .........                                                                                                                   ",
"                                     .........                                                                                                                  ",
"                                      .........                                                                                                                 ",
"                                       .........                                                                                                                ",
"                                        ........                                                                                                                ",
"                                         .......                                                                                                                ",
"                                          ......                                                                                                                ",
"                                           .....                                                                                                                ",
"                                                                                                                                                                ",
"                                                                                                                                                                ",
"                                                                                                                                                                ",
"                                                                                                                                                                ",
"                                                                                                                                                                ",
"                                                                                                                                                                ",
"                                                                                                                                                                ",
"                                                                                                                                                                ",
"                                                                                                                                                                ",
"                                                                                                                                                                ",
"                                                                                                                                                                ",
"                                                                                                                                                                ",
"                                                                                                                                                                ",
"                                                                                                                                                                ",
"                                                                                                                                                                ",
"                                                                                                                                                                ",
"                                                                                                                                                                ",
"                                                                                                                                                                ",
"                                                                                                                                                                ",
"                                                                                                                                                                ",
"                                                                                                                                                                ",
"                                                                                                                                                                ",
"                                                                                                                                                                ",
"                                                                                                                                                                ",
"                                                                                                                                                                ",
"                                                                                                                                                                ",
"                                                                                                                                                                ",
"                                                                                                                                                                ",
"                                                                                                                                                                ",
"                                                                                                                                                                ",
"                                                                                                                                                                ",
"                                                                                                                                                                ",
"                                                                                                                                                                ",
"                                                                                                                                                                ",
"                                                                                                                                                                ",
"                                                                                                                                                                ",
"                                                                                                                                                                ",
"                                                                                                                                                                ",
"                                                                                                                                                                ",
"                                                                                                                                                                ",
"                                                                                                                                                                ",
"                                                                                                                                                                "
};
