/* XPM */
static char *e1a9a2e70f534b03dde9dc9817cdc955LmkWpJc2xSWLYgHj[] = {
/* columns rows colors chars-per-pixel */
"64 64 20 1 ",
"  c black",
". c #263238",
"X c #5D4037",
"o c #FF3D00",
"O c #D32F2F",
"+ c #E53935",
"@ c #EF5350",
"# c #4CAF50",
"$ c #FF9800",
"% c #FFA000",
"& c #FFA726",
"* c #FFB74D",
"= c #311B92",
"- c #3949AB",
"; c #1E88E5",
": c #2196F3",
"> c #FFCC80",
", c #FFD180",
"< c #FFE0B2",
"1 c #90CAF9",
/* pixels */
"1111111111111111111111111111111111111111111111111111111111111111",
"::11::::::1111111111::::::::1111::::::111111::::1111:111::::111:",
"::::::::::::::::::::::::::::::::::::::::::::::::::::::::::::::::",
"::::::::::::::::::::::::::::::::::::::::::::::::::::::::::::::::",
"::::::::::::::::::::::::::::::::::::::::::::::::::::::::::::::::",
"::::::::::::::::::::::::::::::::::::::::::::::::::::::::::::::::",
"::::::::::::::::::::::::::::::::::::::::::::::::::::::::::::::::",
"::::::::::::::::::::::::::::::::::::::::::::::::::::::::::::::::",
"::::::::::::::::::::::::::::::::::::::::::::::::::::::::::::::::",
"::::::::::::::::::::::::::::::::::::::::::::::::::::::::::::::::",
"::::::::::::::::::::::::::::::::::::::::::::::::::::::::::::::::",
"::::::::::::::::::::::::::::::::::::::::::::::::::::::::::::::::",
":::::::::::::::::::::::::;;::::::::;;:::::::::::::::::::::::::::",
";:::::::;;;;:::;;;:;:::::;;;::::;::;;;;:::::;;;::;;;;;;;:;;::;;;",
";;::::;;;;;;;:;;;;;;;<<<<<;;;;;>;;;;;;;;;;;;;;;;;;;;;;;;;;;;;;;;",
";;::::;;;;;;;;;;;;;<<%>%>%o;;;>%;;;;;;;;;;;;;;;;;;;;;;;;;;;;;;;;",
";;;;;;;;;;;;;;;;;;>>%>%>%>%>;>o:;;;;;;;;;;;;;;;;;;;;;;;;;;;;;;;;",
";;;;;;;;;;;;;;;;;> >>%o<,%>%oo<;;;;;;;;;;;;;;;;;;;;;;;;;;;;;;;;;",
";;;;;;;;;;;;;;;;%>>>>%o%<%<>oo<;;;;;;;;;;;;;;;;;;;;;;;;;;;;;;;;;",
";;;;;;;;;;;;;;;;;%>>%%%>%>%%;oo%;;;;;;;;;;;;;;;;;;;;;;;;;;;;;;;;",
";;;;;;;;;;;;;;;;;;o%>%>%>%%o;;o%;;;;;;;;;;;;;;;;;;;;;;;;;;;;;;;;",
";;;;;;;;;;;;;;;;;;;o%%%%%%o;;;;o;;;;;;;;;;;;;;;;;;;;;;;;;;;;;;;;",
";;;;;;;;;;;;;;;;;;;;oooooo;;;;;;;;;;;;;;;;;;;;;;;;;;;;;;;;;;;;;;",
";;;;;;;;;;;;;;;;;;;;;;;;;;;;;;;;;;;;;;;;;;;;;;;;;;;;;;;;;;;;;;;;",
";;;;;;;;;;;;;;;;;;;;;;;;;;;;;;;;;;;;;;;;;;;;;;;;;;;;;;;;;;;;;;;;",
";;;;;;;;;;;;;;;;;;;;;;;;;;;;;;;;;;;;;;;;;;;;;;;;;;;;;;;;;;;;;;;;",
";;;;;;;;;;;;;;;;;;;;;;;;;;;;;;;;;;;;;;;;;;;;;;;;;;;;;;;;;;;;;;;;",
";;;;;;;;;;;;;;;;;;;;;;;;;;;;;;;;;;;;;;;;;;;;;;;;;;;;;;;;;;;;;;;;",
";;;;;;;;;;;;;;;;;;;;;;;;;;;;;;;;;;;;;;;;;;;;;;;;;;;;;;;;;;;;;;;;",
";;;;;;;;;;;;;;;;;;;;;;;;;;;;;;;;;;;;;;;;;;;;;;;;;;;;;;;;;;;;;;;;",
";;;;;;;;;;;;;;;;;;;;;;;;;;;;;;;;;;;;;;;;;;;;;;;;;;;;;;;;;;;;;;;;",
";;;;;;;;;;;;;;;;;;;;;;;;;;;;;;;;;;;;;;;;;;;;;;;;;;;;;;;;;;;;;;;;",
";;;;;;;;;;;;;;;;;;;;;;;;;;;;;;;;;;;;;;;;;;;;;;;;;;;;;;;;;;;;;;;;",
";;;;;;;;;;;;;;;;;;;;;;;;;;;;;;;;;;;;;;;;;;;;;;;;;;;;;;;;;;;;;;;;",
";;;;;;;;;;;;;;;;;;;;;;;;;;;;;;;;;;;;;;;;;;;;;;;;;;;;;;;;;;;;;;;;",
";;;;;;;;;;;;;;;;;;;;;;;;;;;;;;;;;;;;;;;;;;;;;;;;;;;;;;;;;;;;;;;;",
";;;;;;;;;;;;;;;;;;;;;;;;;;;;;;;;;;;;;;;;;;;;;;;;;;;;;;;;;;;;;;;;",
";;;;;;;;;;;;;;;;;;;;;;;;;;;;;;;;;;;;;;;;;;;;;;;;;;;;;;;;;;;;;;;;",
";;;;;;;;;;;;;;;;;;;;;;;;;;;;;;;;;;;;;;;;;;;;;;;;;;;;;;;;;;;;;;;;",
";;;;;;;;;;;;;;;;;;;;;;;;;;;;;;;;;;;;;;;;;;;;;;;;;;;;;;;;;;;;;;;;",
";;;;;;;;;;;;;;;;;;;;;;;;;;;;;;;;;;;;;;;;;;;;--------;;;;;;;;;;;;",
";;;;;;;;;;;;;;;;;;;;;;;;;;;;;;;;;;;;;;;;;---X XX XX--------;;;;;",
"--;;--;;;;;------;;;;;----;;;;;;---------XXX XXXX XXXX----------",
"--------;;----------------;;-----####--X XX  XXX XXXX  X--------",
"--------------------------------## ###XXX  XX XX XX  XXXX-------",
"---------------------------------######XXXXXXX  X  XXXXXX###----",
"--------------------------------------##XXXXXX XXX XXXXXX###----",
"---------------------------------------###X   XXXXX  ###--------",
"---------------------------------------#####XXXXXXXXXX###-------",
"---------------------------------------######----------##-------",
"---------------------------------------##-####------------------",
"---------------------------------------###-####-----------------",
"---------------------------------------###---###----------------",
"----------------------------------------##---------===----------",
"----=======+---------======------====-------============--------",
"--======+=++------==============================================",
"========+++@==+=================================================",
"==========+==+O=================================================",
"==........+=+O=.....===============.....=.........=======.....==",
"...$$$+++$++O=..$$$.................$$$...$$$.$$$.........$$$...",
"$$$$&&O++&++...$$&$$$$$$$$..$$$$..$$$&$$$$$&$$$&$$$$$$$$$$$&$$$$",
"$&&&&&&O++&+$$$$&&&&&&&&&$$.&&&$$$$&&&&&&&&&&&&&&$&&&&&&&$&&&&&$",
"&&&*****O+++************&&$$&*&&&&&&************&&&*****&&&**&&&",
"***********O****************************************************"
};
