/* XPM */
static char *_11731707e834a3193e8f00823ebd79dopUCfnz15h5lSEnJ[] = {
/* columns rows colors chars-per-pixel */
"64 64 18 1 ",
"  c black",
". c #263238",
"X c #5D4037",
"o c #FF3D00",
"O c #4CAF50",
"+ c #FF9800",
"@ c #FFA000",
"# c #FFA726",
"$ c #FFB74D",
"% c #311B92",
"& c #3949AB",
"* c #69F0AE",
"= c #1E88E5",
"- c #2196F3",
"; c #FFCC80",
": c #FFD180",
"> c #FFE0B2",
", c #90CAF9",
/* pixels */
",,,,,,,,,,,,,,,,,,,,,,,,,,,,,,,,,,,,,,,,,,,,,,,,,,,,,,,,,,,,,,,,",
"--,,------,,,,,,,,,,--------,,,,------,,,,,,----,,,,-,,,----,,,-",
"----------------------------------------------------------------",
"----------------------------------------------------------------",
"----------------------------------------------------------------",
"----------------------------------------------------------------",
"----------------------------------------------------------------",
"--------------------->>>>>-----;--------------------------------",
"------------------->>@;@;@o---;@--------------------------------",
"------------------;;@;@;@;@;-;o---------------------------------",
"-----------------; ;;@o>:@;@oo>---------------------------------",
"----------------@;;;;@o@>@>;oo>---------------------------------",
"-----------------@;;@@@;@;@@-oo@---==---------------------------",
"=-------====--==--o@;@;@;@@o--o@=--====-----===--=======-==--===",
"==----=======-=====o@@@@@@o---=o================================",
"==----==============oooooo--====================================",
"================================================================",
"================================================================",
"================================================================",
"================================================================",
"================================================================",
"================================================================",
"===================================================***=*========",
"==================================================* ****========",
"==================================================******========",
"===================================================***=*========",
"================================================================",
"================================================================",
"================================================================",
"================================================================",
"================================================================",
"================================================================",
"================================================================",
"================================================================",
"================================================================",
"================================================================",
"================================================================",
"================================================================",
"================================================================",
"================================================================",
"============================================        ============",
"=========================================   X XX XX   &&&&&=====",
"&&==&&=====&&&&&&=====&&&&======&    &&  XXX XXXX XX X   &&&&&&&",
"&&&&&&&&==&&&&&&&&&&&&&&&&==&&&& OOOO  X XX  XXX XXX XXX &&&&&&&",
"&&&&&&&&&&&&&&&&&&&&&&&&&&&&&&& OO OOO XX  XX XX XX XXXXX   &&&&",
"&&&&&&&&&&&&&&&&&&&&&&&&&&&&&&&  OOOOOO XXXXXX  X  XXXXX OOO &&&",
"&&&&&&&&&&&&&&&&&&&&&&&&&&&&&&&&      OO   XXX XXX XX    OOO &&&",
"&&&&&&&&&&&&&&&&&&&&&&&&&&&&&&&&&&&&&&  OOO   XXXXX  OOO    &&&&",
"&&&&&&&&&&&&&&&&&&&&&&&&&&&&&&&&&&&&&& O OOO X     &  OO &&&&&&&",
"&&&&&&&&&&&&&&&&&&&&&&&&&&&&&&&&&&&&&& O OOOO  &&&&&&&   &&&&&&&",
"&&&&&&&&&&&&&&&&&&&&&&&&&&&&&&&&&&&&&&& O OOOOO &&&&&&&&&&&&&&&&",
"&&&&&&&&&&&&&&&&&&&&&&&&&&&&&&&&&&&&&&& OO OOOOO &&&&&&&&&&&&&&&",
"&&&&&&&&&&&&&&&&&&&&&&&&&&&&&&&&&&&&&&& O &  OOOO &&&&&&&&&&&&&&",
"&&&&&&&&&&&&&&&&&&&&&&&&&&&&&&&&&&&&&&&  &&&&     &%%%&&&&&&&&&&",
"&&&&%%%%%%%&&&&&&&&&&%%%%%%&&&&&&%%%%&&&&&&&%%%%%%%%%%%%&&&&&&&&",
"&&%%%%%%%%%%&&&&&&%%%%%%%%%%%%%%%%%%%%%%%%%%%%%%%%%%%%%%%%%%%%%%",
"%%%%%.%%%%%%%%%%%%%%%%%%%%%%%%%%%%%%%%%%%%%%%%%%%%%%%%%%%%%%%%%%",
"%%%..+..%%%%%%%%%%%%%%%%%%%%%%%%%%%%%%%%%%%%%%%%%%%%%%%%%%%%%%%%",
"%%.+++++...%%%%.....%%%%%%%%%%%%%%%.....%.........%%%%%%%.....%%",
"...+####++.%%%..+++.................+++...+++.+++.........+++...",
"++++#$$##+.....++#++++++++..++++..+++#+++++#+++#+++++++++++#++++",
"+####$$$#+++++++#########++.###++++##############+#######+#####+",
"###$$$$$#########$$$$$$$##++#$######$$$$$$$$$$$$###$$$$$###$$###",
"$$$$$$$$$$$$$$$$$$$$$$$$$$$$$$$$$$$$$$$$$$$$$$$$$$$$$$$$$$$$$$$$"
};
