/* XPM */
static char *_2bfc58ed77d43afe48082dd8f2d3706jtTJBalC9VRcgwVU[] = {
/* columns rows colors chars-per-pixel */
"64 64 179 2 ",
"   c #168097",
".  c #178098",
"X  c #1A849C",
"o  c #1C889F",
"O  c #20869D",
"+  c #23899F",
"@  c #1D87A0",
"#  c #1E89A1",
"$  c #228CA3",
"%  c #2E8EA4",
"&  c #278FA8",
"*  c #308EA3",
"=  c #2590A7",
"-  c #2C90A6",
";  c #2691AA",
":  c #2B94AC",
">  c #2F98AE",
",  c #3290A6",
"<  c #3392A9",
"1  c #3896AC",
"2  c #3198AF",
"3  c #3A99AE",
"4  c #2B97B1",
"5  c #2E9BB5",
"6  c #329DB6",
"7  c #3C9CB3",
"8  c #329FB9",
"9  c #35A2BD",
"0  c #39A5BE",
"q  c #449AAC",
"w  c #42A3B5",
"e  c #49A1B5",
"r  c #43A6BC",
"t  c #40A8BE",
"y  c #4CA8BE",
"u  c #59A8BB",
"i  c #36A3C1",
"p  c #39A6C1",
"a  c #3DAAC4",
"s  c #41A7C1",
"d  c #42ACC5",
"f  c #4AACC4",
"g  c #43AFC9",
"h  c #49AFC9",
"j  c #54AEC3",
"k  c #4AB1C7",
"l  c #45B1CA",
"z  c #4DB4CB",
"x  c #4EB8CF",
"c  c #5BB3C7",
"v  c #53B4CB",
"b  c #5BB5CA",
"n  c #52B8CF",
"m  c #4CB6D0",
"M  c #4FB9D3",
"N  c #53BCD4",
"B  c #5ABBD1",
"V  c #57BFD8",
"C  c #62B7C8",
"Z  c #63B8CC",
"A  c #6BBBCF",
"S  c #73BACA",
"D  c #63BCD1",
"F  c #6BBED2",
"G  c #57C0D7",
"H  c #59C1D7",
"J  c #56C0D8",
"K  c #5BC4DC",
"L  c #67C3D6",
"P  c #67C7DB",
"I  c #68C7DA",
"U  c #61C8DE",
"Y  c #6AC9DE",
"T  c #73C1D6",
"R  c #7CC2D3",
"E  c #79C9DC",
"W  c #5FC7E0",
"Q  c #64CAE2",
"!  c #69CEE3",
"~  c #68CFE8",
"^  c #6ED2E6",
"/  c #6ED4EA",
"(  c #76D2E4",
")  c #71D6EB",
"_  c #79D7EC",
"`  c #74D8EE",
"'  c #7BD9EE",
"]  c #75DAF1",
"[  c #79DDF3",
"{  c #7CE0F5",
"}  c #7FE3F8",
"|  c #86BDC9",
" . c #8FC2CD",
".. c #90C4CF",
"X. c #82C4D4",
"o. c #8CC7D5",
"O. c #82C9DB",
"+. c #8CCBDC",
"@. c #91C6D2",
"#. c #96CAD6",
"$. c #9CCAD3",
"%. c #9ACEDA",
"&. c #9ED2DF",
"*. c #ACD5DE",
"=. c #8BD1E4",
"-. c #8CDBEC",
";. c #9CD3E2",
":. c #9AD8E6",
">. c #9EDCED",
",. c #82DDF1",
"<. c #8EDEF2",
"1. c #A2D6E3",
"2. c #AAD7E4",
"3. c #A5D9E5",
"4. c #A9DAE5",
"5. c #A1DDEA",
"6. c #ABDDE9",
"7. c #B0DBE5",
"8. c #BBDFE6",
"9. c #BADFEA",
"0. c #81E2F6",
"q. c #8BE3F5",
"w. c #83E6FA",
"e. c #84E7FB",
"r. c #82E6FC",
"t. c #83E6FC",
"y. c #83E7FC",
"u. c #89E7FA",
"i. c #84E8FC",
"p. c #8DE9FB",
"a. c #8DE9FD",
"s. c #93E0F0",
"d. c #9DE7F7",
"f. c #93E7F8",
"g. c #92EAFB",
"h. c #9CEBFB",
"j. c #BAE2EB",
"k. c #BFE1EC",
"l. c #A4E7F4",
"z. c #A9E7F4",
"x. c #A7E9F7",
"c. c #ABE9F7",
"v. c #A5EEFD",
"b. c #ADEFFC",
"n. c #B4E5F1",
"m. c #B6EAF4",
"M. c #BAEBF5",
"N. c #B5EEFB",
"B. c #BCEDF8",
"V. c #BDF2FE",
"C. c #C4E0E7",
"Z. c #C9E2E7",
"A. c #CDE6EC",
"S. c #D0E6EA",
"D. c #D4EAEE",
"F. c #C5E9F2",
"G. c #CEE8F0",
"H. c #D6ECF2",
"J. c #D7ECF2",
"K. c #D9EEF3",
"L. c #C3F3FD",
"P. c #CCF5FE",
"I. c #D7F0F7",
"U. c #DCF0F5",
"Y. c #D4F5FB",
"T. c #DEF3F8",
"R. c #D6F8FE",
"E. c #DBF9FF",
"W. c #E5F3F7",
"Q. c #E2F6FB",
"!. c #EAF6F9",
"~. c #E4F8FC",
"^. c #E5FAFE",
"/. c #E6FAFE",
"(. c #EEFCFF",
"). c #F7FBFC",
"_. c #F5FCFE",
"`. c #FBFEFF",
"'. c #FEFFFF",
/* pixels */
"K w.w.l { w.a g a 6 9 9 d r.w.w.w.w.K K w.K V ] K } K l l a r.K 5 : $ } w.e.e.`.'.'.^.K K w.N 9 p a ) r.e.e.Q ! ) K w.{ K l w.l ",
"w.l l l l g 0 g [ 4 9 l u.a.V.R.'.'.E.v 0 9 g K q.a ] l l } l a 5 o : t s d q.`.'.^.r.r.l 0 0 p a 8 L *.$ ^ H k [ K 9 a g N 0 J ",
"q.g l { g g K w.w.k l w.r.H ` v.v.h.d.g 0 l r.{ g K r.K r.{ l l 4 $ . . X o : j.L.i.{ { a i l / 2 { $ ^ ^ ^ ^ q.q.! 8 g l l 9 } ",
"L.K r.L.! r.r.^ ^ w.w.l g a K e.K B [ K T W ) r.K r.] ] ` ` M ] x ; X   . . . ' r.} K } K l ^ : n 0 6 l g 9 Q L.m.# E n.a l K i.",
"w.^.^.^.e.w.^ > > U [ l l w.l 0 0 h ' ! ) / Q ) r.] l l l a i p f ; ; X . . o g l a ] l l a : j.. 6 9 9 9 9 $ t D.).`.E.m [ r.r.",
"p.^.^.r.i.^ > i.X   ^ x ^ { a 0 v G.K M p i a M m a r.i 8 0 0 i 1.9 9 ; X o 9 9 9 0 [ l l 5 > . : 9 9 9 9   6 d H.).H.9 ^ / r.r.",
"e.2.w.p.v : r.o . .     . ^ J +.'.'.p i p p 0 i a M 9 9 ; 9 9 ; 8 H.H.O.; 9 9 9 0 l K K l 6 6 6 6 a 5 5   X 9 9 1.X.8 9 i / [ K ",
"w.w.# : - : X : ; $ ; X $ X > G.'.d a i i i i i i 9 9 9 l # # # B K.K.N g 0 p p i g 9 9 9 9 6 4 = X X . o 0 9 9 9 X ; 9 # ; a l ",
"; 7 X : 2 :   6 K 8 9 J N X . z.).g.Q 9 6 K a 8 0 l 0 0 a ; : [ F.!.b Z Z 0 9 9 9 9 9 9 8 ) ; . k o # ` a 9 h K a + . . . X s } ",
"+ n d k B $   X 9 ` ] ) 0 / ^ ' D.g.9 ] ^ ^ 9 o o K 9 9 ) : l p i W v i K : 9 9 & 8 9 N : X   . K 9 [ [ x N ` ^.H.7.. . . a l K ",
"$   ) ) ) . . 7 l ` ` 9 Q ) / n T.G./ q.'     . . G } } } a 9 9 9 9 ` ` ` 9 @ @ $ l ^ : / . . . a 0.w.w.q.` ' !.K.4 .   g 0 l g ",
"  $ ) } 1 . . 4.K K *.Q a { ` ^ r H.l.N.8 x $ . X l w.r.` i 9 i 0 a ` ` Z c $ : w.e.; : X   . 5 h } } ` K x.U.!.9 9 X 0 0 g l w.",
". . [ : ) X . X Q.f.g.] a [ ^ . z.I.H.` ) ^   @ 0 a } ` 9 9 a J l l Q ^.'.'.d e.w./ : o . . X 9 9 K [ ` ` H.U.a } ) { a 0 g } K ",
". X : = . ; X w O.q.` 5 8 x ^ ) h.'.).` ` i ; 9 9 9 K 9 9 9 W { r.r.e.Q.H.,.k r.w.o Q .   . 9 6 9 a ` ` 9 ;.9 a i.r.w.i.w.l g l ",
". X X ;   . 9 6 f d 5 6 5 $ ^ q.G.'.'.V.i 9 9 9 m a 9 9 9 9 M W w.r.a.Y Z z K 8 9 # X . . 6 9 @ 9 9 N 5 9 a 9 i.r.} i.q.{ g l e.",
"X . 7 ^   $ 5 9 5 6 5 5     P +.2.G.'.`.p.9 9 i [ K [ ! a 9 p / / i.i.v.k 9 9 9 9 = $   . 4 : o X .   5 a a # r.i.> ^ L.r.K L.h.",
"X : w./ . ^ 6 5 K $ &   . 9 i 9 +.A.H.'.a.a 0 9 m } ) # 9 ; # ^ Q g.e.0.l 0 9 0 ) = v .   x p X   . . i a 6 # X X . ^ w.^.^.^.p.",
"k r.} e.) ^ ^ ) ^ .     6 i i p i 2.+.2.e.r.a 0 8 { K #     X 9 p.' a.r.K l l / = =   ! ^ / . .   . i a a $ / . . X w.a.~.^.i.g.",
"e.w.K e.[ 0 ^ ) 6 @ . . 6 9 h ~ 9 i V.! r.w.w.0 a i 8 o     9 9 a ) g.i.w.w.u.2 2 . $ ) ^ . . . X @ @ 9 9 : X X . ^ r.i.5.e.e.e.",
"w.w.e.s.l 9 -.f 8   . . i g ] / ` 0.0.Q K w.` p } = a ; # 8 5 5 0 g.'.h.u.{ r./ X . . z . $ . .     . 9 @ /   : X r.K { - [ b.2 ",
"{ w.{ l U.U.H.9   z $ 9 l / ) ` w.w.r.9 ;.{ r.0 a a a 8 5 5 5 : 9 W.'.^.u.` ~ K X     o @ n @ . n $ . 9 : X X 5 a l 0 ` = . X . ",
"K w.w.F ~.T.9 ^ ) ) s 9 ) 9 w.h w.w.& 8 ;.Q 0 w.i.. 0 # # o . o L C.$.F.k K K a o $ : 8 5 5 ` ` ) 6 9 6 Q X . 4 0 9 9 w.4.  . X ",
"w.l l l P.h.l ` q.8 K ;.f w.w.w.: o o 9 h Q e.e.. X . # = . X   + q e P K 9 i a w.r.r.g 0 a ` ` 9 9 9 9 @ . @ a 9 9 0 >.Y X   : ",
"{ l l i.r.L.w.K 1.K.J.~.] w.r.! @ X 9 9 9 Q )   . ; . ; z .   z + o X = . 6 6 : 9 d 0 f 9 9 K 9 9 9 9 9 @ . 5 { 9 9 0 g.n = | e.",
"} J } a.g.w.U.c.U.H.U.` ` ) 9 9 2 i 9 9 9 a U i.$ X 5 .   ( ^ ^ . .   X # o 4 : 9 K 9 *.K a &.f d 9 9 9   X N 0 9 9 } M p.'.9 w.",
"r.K } i.K [ g.f.9 ;...Y 9 9 9 9 W 8 W s 0 $ ) r.r.. 5 z : ) ^   . . o $   #   4 G 5 ) { Q.H.H.9 9 8 9 X X ] g 9 9 0 ] a.g.9 9 9 ",
"r.J l l M ` q.X S.U.S.5 K a 9 9 p ] $ 5 a ; ' y C ) ) ` 5 G .   . . 5 n   5 x > 5 ` 0.a.T.D.0 K a 9 6 : h.p 0 9 9 0 ] r.9 9 9 9 ",
"l l l l r.} a - S.A.^ ^ / @ 5 9 a W @ . n X : d.Y.) 0.D.b . . o .   5 9 ` ` ` x $ ) w.` V.` ` ` 9 i w.i.` # o 9 @ o K [ w.9 9 9 ",
"l i.l { w.K i.. #.= ) ^     X 6 W 9 K $ . ! ) ) ).L.V.).q z $ ; . . : a ` ` 9 5 / [ [ ! ] ` ) 9 9 ^ r.] l # .   .   9 { g.'.9 w.",
"l l a } r.J l 5 5   v .   *   6 a ) 5 X $ ) _ * K.V.).h.^ ^ + . 5 5 5 9 K 9 9 a ^ ^ X 5 i ] 9 9 9 l ~ l r.0 X   .   ; B F R A w.",
"l l w.l l g l 5   . . .   ... 8 ;.! 6 @ . v   ) q.q.U.^ ^ . k X 5 J > 5 6 9 9 4 z   X ! N i 9 9 p 9 g ` i K   z $ . # v '.'.I.w.",
"J { { l l w.K X . ; X ; . X C.Q.K.p 5 $ X X $ ) q.u.` g [ 9   ^ ` / z   x 0 5 $ . . . ] z 0 9 9 9 9 K 9 K k ^ .   . 6 ,.w.g.).e.",
"[ K i.l K { J ; . X 9 . ; , R ^.r.H = x ; G = / M.0.w.L.p.. 4 m Q o $ ^ o :   z . z : l } 9 9 K a 9 a ` 9 h n . . . @ U a.'.b.w.",
"l r.l 0 9 l l X X   : 5 . . L.l g g = = ^ 5 9 8 ` ^.^.^.9 0 i p       z # 9 5 $ / # g.k i ] ` ] 0 9 9 K 9 9 8 . . .   n d.).b.w.",
"w.: 9 9 l l / ^ ; .   5 $ r.{ l l i.} . x 6 8 a ,.^.^.6 8 9 9 6.g 5  .%   9   . N . $ g a ` ` ] l g i 9 9 0 ) .     X z v.L.w.w.",
"' : 5 r.M } ] K . 5 5 5 a { } a ` r.!   ; ; : 8 K m.5 6 ; ; @ 8 D.U.U.a $       $ $ $ g 9 K 9 ` w.w.l g l i.0.;   X j v.V.) w.w.",
"i.k r.) Q } a / X 5 5 . K 0 0 0 K = o o . 6 6 6 . = 6 .   . . f H.H.9 0 l g K ^ $ X & g 9 9 9 ` r.~ [ / N w.w.[ > I v [ w.9 / a ",
"k [ r.) a / a i.< ; . . P 0 9 l g ; X   X 6 5   n U I .   . 9 p ;.9 9 9 0 p l ` r.r.g ] 9 8 p r.) Q M a w.w.) '.'.h.w.i a i 9 l ",
": i.i.a a / 9 a 8 . X X ; g g l w.w.K =   5 X X . . $ # @ 9 9 9 9 a 0 9 9 0 0 l ] r.g p 9 9 ` r./ 9 / a 9 a.F '.T.g./ 0 K p K l ",
"w.r.k 0 w.9 i 9 6 . : X & U T e.w.e.w.9 l 0 9 4 .   ; { g 9 9 9 9 ] l g 0 0 i 0 [ ` g 9 9 9 ` r.a ; ' 9 $ 9 W.F '.p.J a a ` i J ",
": : : w.4 : : 9 9 @ ; 5 ; 7 *.! ' G.k.g 9 - : e.l l 4 [ w.: 8 9 i r.i.w.g 9 9 l i.k [ 9 i i r.Q p h @ # @ 9 9 A '.n.w.g $ K l k ",
": : ^ S : 0 5 4 9 6 @ 8 . . $ o.+.2.j.y : : k ' h g r.# : : ; 9 r.i./ / ~ 0 g [ [ T p 9 8 ' K N i 8 @ X 9 9 0 A.^.^ { d 0 # : : ",
"k ^ : 3 X v   0 N 0 @ ; . . . # 9 f f A.$ $ = { N / ] : X : # r./ / / { ) V { j.' ] 9 9 f H.O.0 ;.f ; 9 9 9 8 @.6.6 w.K M : : e.",
"0.w.X . . X ) 0.) K %.* z $ . . $ 0 0 K < < ' ` r.] ) 0 & # e.) 0 J a a d b p d h p 9 b +.s H.K.K.8 9 9 i 8 : q ! $ [ e.! k e.e.",
"w.$ . o . $ ) ^ S.D.f._ !   % X q 8 a s r ` ` h p a ~ ) s / ; ; # g h N s g N v f 9.O.1.0 j W.K.9 0 8 9 9 6 X $ $   K 6 ( N [ w.",
"w.i.= ; . ; U * A.l.` ) :   @.4 n.1.B n.q.[ k s 4.a f d a K - # h d 0 : 9 5 6 K 9 9 K h H.H.N.9 i K a i 9 6 . % . . X 6 &.d w.L.",
"w.w.. o 9 + . ( ,.) z p K @ & T.H.).~.~.[ ` 9 9 0 8 1.f E 1.2 a N 9 4 ; 5 X 5 5 / ` ` Q H.H.K ] ` ` 8 i f . . . . . : 5 4 T.^.^.",
"w.! n ; G H n { ) . . 8 i ` ,.~.K.~.~.` ] 9 d 9 p 9 9 c.K.H.K <.K 9 6 N 6 X X 9 ] ) 9 9 q.` ] ` ` 8 9 0 S.O ; $ . . . 9 r U.^.e.",
"+   . Y 0 ` ^ v . r.0 9 a ) ) %.6 m.0 K K a K 9 K K v c.a.^ ) 9 0 ` ^ ^ X . X   K : 5 a ` ` 0 K i i p ;.h   z n   z n 9 5 L.e.r.",
"r.; .   ; z k . ! K w.Y 9 H 6 9 5 9 ` ` ` 9 9 ) ] } ] q.` a 9 ; 0 } ^ X k $ . .   4 : 5 H 9 9 ; 8 9 =.h 0 . . ) } 0./ : N Q 0.r.",
"w.w.{ : .         . ^ H H o X o . 9 ` ` 0 9 a ` ] ] ) 9 K 5 @ 9 9 K ` ^ ) + . .     : X N ; X z p ) d 9 X $ $ ) 0.) 6     J ^ w.",
"w.e.i.e.e.Q ^ o . . X ; = o o ) + 9 K 5 8 9 9 K 9 K 9 i i @ = # 5 a ' )   z     x #   9 K ` ) [ a & 9 a % (   N H 5 ; X   Y w.k ",
"w.w.d ^ ] r.r.i.} P.$ 9 5 9 : o . $ + Q W ) z 0 9 9 9 9 9 5 X 9 0 $ ] ^     ^ ^ ^ . o 5 Q } } [ ; $ ] r.& ~ $   6 5 5     X . : ",
": - # l l l l l [ ^.g.' 9 K X z $ . q , ~ ] } N ` Q N i 9 9 # i z # = @ $ $ ) ^       9 i w.} ^ @ 9 l ` $ $ $ . 5 9     4 . X r.",
": o l 0 f 9 K 0 b ) }   5 H ) z 6 X Z. .0 ^.P.b i 0 i a a ~ ) a i 9 . . . . z .     0 w.l { ` ; f p 0 ` r.$ $ . : ; 9 9 9 X   e.",
"k l 0 0 ;.9 9 B.,.) P 7.  $ [ 5   o o G.!.'.^.{ 0 9 9 9 p l a ] } i.r.= $ X . .   $ ` ` a K 9 9 ;.8 0 3.,.$ w.$ : # 9 9 5 . '.e.",
"r.a 9 9 9 U.U.E.) b u 2 = . k : . 5 9 C f v g x 9 9 9 9 9 9 l l K a.i.C a.= +   $ ; 9 a a 9 9 9 9 H.H.H.h ,.$ X . 8 9 9   8.7.w.",
"i.l 9 9 f Q.H.K K k v 9 R C.q   .   0 9 9 9 9 g l 0 0 9 9 9 ` ; : / : G.m.0 D.*.a.$ 6 X 5 5 $ 4 n H.H.9 9 3.] i.X.9 9     (.'.w.",
"r.] 9 9 0 3.` ` ` f 0 c b `.+ . . o 9 9 9 9 l l l i.9 9 9 9 9 w.. .   . ).h.'.^.[ 0 0 o   . $ o X : $ $ f D ^.^.+.K z n = : X e.",
"w.B.d 9 9 x / ~ 9 k b c '.} i.r.Y <.0 5 0 K w.w.9 9 9 9 9 5 -.U o   . q ).`.I.w.K w.K 0 . . . X . X ; 6 :.R.g.E.P.L l 0 a k '.K ",
"^.^.l a l ) ] ` [ l p X.G G { { w.^.E.w.^.^.h.` 0 9 9 a l > 9 k X . . X A.L.K w.w.a g d X $ . @ X 9 8 l w.e.u.u.u.e.6.n l g l g ",
"^.` [ Q ~ Q } } 8 6 5 9 0 l { { l w.`.h.h.'.q.` a m i.} l l 5   . . X 2 r.d ' l g 9 g w.6 U p p s 9 a [ g.(.h.'.'.e.u.G ` g l 0.",
"r.l l l a ) J ^ ; # X o # ^ w.g l h.'.'.'.^.r.w.0 9 i.{ l a X . . $ w.0 - k { : g K e.w.e.N K p 9 p g r.w.P.'.h.`.^.e.l K 9 N k ",
"i.] i 0 { a { l a # X X w.w.w.w.w.r.^.`.^.i.i.w.r.i.r.i.H i.2 2 k [ > i.l [ : K r.w.w.w.[ N g g 9 m r.r.w.w.^.L.L.e.e.` 9 g : i."
};
